<?xml version="1.0" encoding="utf-8"?>
<!-- Generator: Adobe Illustrator 27.2.0, SVG Export Plug-In . SVG Version: 6.00 Build 0)  -->
<svg version="1.1" id="Camada_1" xmlns="http://www.w3.org/2000/svg" xmlns:xlink="http://www.w3.org/1999/xlink" x="0px" y="0px"
	 viewBox="0 0 30 30" style="enable-background:new 0 0 30 30;" xml:space="preserve">
<style type="text/css">
	.st0{fill:#D24533;}
</style>
<path class="st0" d="M19.9,1.5l-4.6,1.6h-0.5l-4.6-1.6L0.1,4.9l0,0.2h0v0.6v0.2v0.2l10.1,3.3l2.3-0.8v3.6l-2.3,4.8L14.4,29h0.3h0.8
	h0.3l4.2-12.1l-2.3-4.8V8.6l2.3,0.8L30,6.1V5.9V5.7V5.3V5.1V4.9L19.9,1.5z M8.6,7C7.8,7,7.1,6.4,7.1,5.5C7.1,4.7,7.8,4,8.6,4
	c0.8,0,1.5,0.7,1.5,1.5C10.1,6.4,9.5,7,8.6,7z M15.1,19.9c-1,0-1.7-0.7-1.7-1.6c0-0.9,0.8-1.6,1.7-1.6c1,0,1.7,0.7,1.7,1.6
	C16.8,19.2,16,19.9,15.1,19.9z M21.5,7.1c-0.8,0-1.5-0.7-1.5-1.5C20,4.7,20.7,4,21.5,4C22.3,4,23,4.7,23,5.5
	C23,6.4,22.3,7.1,21.5,7.1z"/>
</svg>
